<svg version="1.1" xmlns="http://www.w3.org/2000/svg" x="0px" y="0px" width="20px" height="20px" viewBox="0 0 512 512" enable-background="new 0 0 512 512" xml:space="preserve">
  <path id="keyboard" d="M432,177.336v157.328H80V177.336H432z M462,147.336H50v217.328h412V147.336z M318.227,192.094h37.541	v31.631h-37.541V192.094z M328.267,240.183v31.631h-37.539v-31.631H328.267z M264.229,192.094h37.539v31.631h-37.539V192.094z M274.269,240.183v31.631H236.73v-31.631H274.269z M210.231,192.094h37.538v31.631h-37.538V192.094z M220.271,240.183v31.631 h-37.539v-31.631H220.271z M156.232,192.094h37.54v31.631h-37.54V192.094z M102.234,192.094h37.539v31.631h-37.539V192.094z M102.234,240.183h64.038v31.631h-64.038V240.183z M344.726,319.906H166.272v-31.632h178.453V319.906z M409.766,271.814h-65.04	v-31.631h65.04V271.814z M409.766,223.725h-37.54v-31.631h37.54V223.725z"></path>
</svg>
